  0
SECTION
  2
BLOCKS
  0
BLOCK
8
0
  2
ppplans
70
0
  10
0.000000
  20
0.000000
  30
0.000000
  3
ppplans
  1

  0
POLYLINE
  8
0
  66
 1
  62
3
  10
0.0
  20
0.0
  30
0.0
  0
VERTEX
  8
0
 62
  3
10
0.273213
 20
0.0906931
 30
 0.0
  0
VERTEX
  8
0
 62
  3
10
0.273213
 20
-0.0906931
 30
 0.0
  0
VERTEX
  8
0
 62
  3
10
-0.273213
 20
-0.0906931
 30
 0.0
  0
VERTEX
  8
0
 62
  3
10
-0.273213
 20
0.0906931
 30
 0.0
  0
VERTEX
  8
0
 62
  3
10
0.273213
 20
0.0906931
 30
 0.0
0
SEQEND
  8
0
62
   3
  0
TEXT
  8
0
 62
3
 10
-0.211422
 20
0.0294563
 40
0.03125
 50
0
 1
PENGUIN RACING DINGHY
  0
TEXT
  8
0
 62
3
 10
-0.0990409
 20
-0.00454374
 40
0.0208333
 50
0
 1
TEMPLATE PLAN
  0
TEXT
  8
0
 62
3
 10
-0.231083
 20
-0.0345018
 40
0.0208333
 50
0
 1
SCALE FULL SIZE
  0
TEXT
  8
0
 62
3
 10
0.0291783
 20
-0.0372993
 40
0.0208333
 50
0
 1
APRIL 26 1940
  0
TEXT
  8
0
 62
3
 10
0.0415859
 20
-0.0601852
 40
0.0208333
 50
0
 1
JAN 1962
  0
TEXT
  8
0
 62
3
 10
-0.197457
 20
-0.081655
 40
0.0141667
 50
0
 1
T.H.S- G.A.D. JR
  0
TEXT
  8
0
 62
3
 10
0.110981
 20
-0.0816324
 40
0.0141667
 50
0
 1
PLANS  NO 1
  0
ENDBLK
  8
0
  0
BLOCK
8
0
  2
stem
70
0
  10
0.000000
  20
0.000000
  30
0.000000
  3
stem
  1

  0
POLYLINE
  8
0
  66
 1
 62
3
  10
0.0
  20
0.0
  30
0.0
  0
VERTEX
  8
0
 10
-0.377469
 20
0.366229
 30
0.0
  0
VERTEX
  8
0
 10
-0.376939
 20
0.359169
 30
0.0
  0
VERTEX
  8
0
 10
-0.376324
 20
0.352149
 30
0.0
  0
VERTEX
  8
0
 10
-0.375539
 20
0.345211
 30
0.0
  0
VERTEX
  8
0
 10
-0.374499
 20
0.338395
 30
0.0
  0
VERTEX
  8
0
 10
-0.373117
 20
0.331741
 30
0.0
  0
VERTEX
  8
0
 10
-0.371311
 20
0.325289
 30
0.0
  0
VERTEX
  8
0
 10
-0.368993
 20
0.319081
 30
0.0
  0
VERTEX
  8
0
 10
-0.366079
 20
0.313157
 30
0.0
  0
VERTEX
  8
0
 10
-0.363262
 20
0.308623
 30
0.0
  0
VERTEX
  8
0
 10
-0.360052
 20
0.304295
 30
0.0
  0
VERTEX
  8
0
 10
-0.356494
 20
0.300167
 30
0.0
  0
VERTEX
  8
0
 10
-0.352638
 20
0.296235
 30
0.0
  0
VERTEX
  8
0
 10
-0.348528
 20
0.292495
 30
0.0
  0
VERTEX
  8
0
 10
-0.344212
 20
0.288941
 30
0.0
  0
VERTEX
  8
0
 10
-0.339737
 20
0.285569
 30
0.0
  0
VERTEX
  8
0
 10
-0.335149
 20
0.282374
 30
0.0
  0
VERTEX
  8
0
 10
-0.320345
 20
0.273453
 30
0.0
  0
VERTEX
  8
0
 10
-0.304979
 20
0.266002
 30
0.0
  0
VERTEX
  8
0
 10
-0.289137
 20
0.259799
 30
0.0
  0
VERTEX
  8
0
 10
-0.2729
 20
0.254618
 30
0.0
  0
VERTEX
  8
0
 10
-0.256353
 20
0.250235
 30
0.0
  0
VERTEX
  8
0
 10
-0.239578
 20
0.246425
 30
0.0
  0
VERTEX
  8
0
 10
-0.22266
 20
0.242964
 30
0.0
  0
VERTEX
  8
0
 10
-0.205681
 20
0.239629
 30
0.0
  0
VERTEX
  8
0
 10
-0.188725
 20
0.236193
 30
0.0
  0
VERTEX
  8
0
 10
-0.171875
 20
0.232433
 30
0.0
  0
VERTEX
  8
0
 10
-0.155215
 20
0.228124
 30
0.0
  0
VERTEX
  8
0
 10
-0.1288
 20
0.219596
 30
0.0
  0
VERTEX
  8
0
 10
-0.103099
 20
0.209206
 30
0.0
  0
VERTEX
  8
0
 10
-0.0781093
 20
0.197114
 30
0.0
  0
VERTEX
  8
0
 10
-0.05383
 20
0.183484
 30
0.0
  0
VERTEX
  8
0
 10
-0.0302591
 20
0.16848
 30
0.0
  0
VERTEX
  8
0
 10
-0.00739488
 20
0.152264
 30
0.0
  0
VERTEX
  8
0
 10
0.0147644
 20
0.134998
 30
0.0
  0
VERTEX
  8
0
 10
0.0362205
 20
0.116847
 30
0.0
  0
VERTEX
  8
0
 10
0.0569751
 20
0.0979719
 30
0.0
  0
VERTEX
  8
0
 10
0.0846353
 20
0.0707996
 30
0.0
  0
VERTEX
  8
0
 10
0.110952
 20
0.0425719
 30
0.0
  0
VERTEX
  8
0
 10
0.13593
 20
0.0133141
 30
0.0
  0
VERTEX
  8
0
 10
0.159574
 20
-0.016949
 30
0.0
  0
VERTEX
  8
0
 10
0.181891
 20
-0.0481923
 30
0.0
  0
VERTEX
  8
0
 10
0.202886
 20
-0.0803909
 30
0.0
  0
VERTEX
  8
0
 10
0.214238
 20
-0.0991639
 30
0.0
  0
VERTEX
  8
0
 10
0.225025
 20
-0.118274
 30
0.0
  0
VERTEX
  8
0
 10
0.235112
 20
-0.137757
 30
0.0
  0
VERTEX
  8
0
 10
0.244363
 20
-0.157647
 30
0.0
  0
VERTEX
  8
0
 10
0.25264
 20
-0.177981
 30
0.0
  0
VERTEX
  8
0
 10
0.259807
 20
-0.198792
 30
0.0
  0
VERTEX
  8
0
 10
0.265728
 20
-0.220116
 30
0.0
  0
VERTEX
  8
0
 10
0.268262
 20
-0.231244
 30
0.0
  0
VERTEX
  8
0
 10
0.270571
 20
-0.242457
 30
0.0
  0
VERTEX
  8
0
 10
0.272795
 20
-0.253694
 30
0.0
  0
VERTEX
  8
0
 10
0.275072
 20
-0.264897
 30
0.0
  0
VERTEX
  8
0
 10
0.277541
 20
-0.276006
 30
0.0
  0
VERTEX
  8
0
 10
0.280342
 20
-0.286962
 30
0.0
  0
VERTEX
  8
0
 10
0.283612
 20
-0.297704
 30
0.0
  0
VERTEX
  8
0
 10
0.287492
 20
-0.308175
 30
0.0
  0
VERTEX
  8
0
 10
0.292118
 20
-0.318313
 30
0.0
  0
VERTEX
  8
0
 10
0.297632
 20
-0.32806
 30
0.0
  0
VERTEX
  8
0
 10
0.30417
 20
-0.337356
 30
0.0
  0
VERTEX
  8
0
 10
0.307197
 20
-0.341042
 30
0.0
  0
VERTEX
  8
0
 10
0.310411
 20
-0.344606
 30
0.0
  0
VERTEX
  8
0
 10
0.313803
 20
-0.348014
 30
0.0
  0
VERTEX
  8
0
 10
0.317361
 20
-0.35123
 30
0.0
  0
VERTEX
  8
0
 10
0.321076
 20
-0.35422
 30
0.0
  0
VERTEX
  8
0
 10
0.324937
 20
-0.356949
 30
0.0
  0
VERTEX
  8
0
 10
0.328933
 20
-0.359381
 30
0.0
  0
VERTEX
  8
0
 10
0.333054
 20
-0.361483
 30
0.0
  0
VERTEX
  8
0
 10
0.33729
 20
-0.363219
 30
0.0
  0
VERTEX
  8
0
 10
0.341629
 20
-0.364555
 30
0.0
  0
VERTEX
  8
0
 10
0.346537
 20
-0.365544
 30
0.0
  0
VERTEX
  8
0
 10
0.351542
 20
-0.366076
 30
0.0
  0
VERTEX
  8
0
 10
0.35663
 20
-0.366229
 30
0.0
  0
VERTEX
  8
0
 10
0.361783
 20
-0.366076
 30
0.0
  0
VERTEX
  8
0
 10
0.366984
 20
-0.365696
 30
0.0
  0
VERTEX
  8
0
 10
0.372219
 20
-0.365163
 30
0.0
  0
VERTEX
  8
0
 10
0.377469
 20
-0.364555
 30
0.0
  0
SEQEND
  0
POLYLINE
  8
0
  66
 1
  62
3
  10
0.0
  20
0.0
  30
0.0
  0
VERTEX
  8
0
 62
  3
10
0.377076
 20
-0.36588
 30
 0.0
  0
VERTEX
  8
0
 62
  3
10
0.278493
 20
0.29234
 30
 0.0
0
SEQEND
  8
0
62
   3
  0
POLYLINE
  8
0
  66
 1
  62
3
  10
0.0
  20
0.0
  30
0.0
  0
VERTEX
  8
0
 62
  3
10
0.278493
 20
0.29234
 30
 0.0
  0
VERTEX
  8
0
 62
  3
10
-0.377469
 20
0.366229
 30
 0.0
0
SEQEND
  8
0
62
   3
  0
TEXT
  8
0
 62
3
 10
0.318325
 20
-0.0162187
 40
0.025
 50
94.571
 1
KEEL
  0
TEXT
  8
0
 62
3
 10
-0.116324
 20
0.307557
 40
0.025
 50
-6.429
 1
STEM
  0
TEXT
  8
0
 62
3
 10
0.00164002
 20
0.209043
 40
0.0416667
 50
-40.429
 1
STEM KNEE
  0
ENDBLK
  8
0
  0
BLOCK
8
0
  2
stern
70
0
  10
0.000000
  20
0.000000
  30
0.000000
  3
stern
  1

  0
POLYLINE
  8
0
  66
 1
  62
3
  10
0.0
  20
0.0
  30
0.0
  0
VERTEX
  8
0
 62
  3
10
0.40457
 20
-0.320208
 30
 0.0
  0
VERTEX
  8
0
 62
  3
10
0.250852
 20
0.32299
 30
 0.0
0
SEQEND
  8
0
62
   3
  0
POLYLINE
  8
0
  66
 1
  62
3
  10
0.0
  20
0.0
  30
0.0
  0
VERTEX
  8
0
 62
  3
10
0.250852
 20
0.32299
 30
 0.0
  0
VERTEX
  8
0
 62
  3
10
-0.408252
 20
0.291765
 30
 0.0
0
SEQEND
  8
0
62
   3
  0
POLYLINE
  8
0
  66
 1
 62
3
  10
0.0
  20
0.0
  30
0.0
  0
VERTEX
  8
0
 10
-0.408252
 20
0.291765
 30
0.0
  0
VERTEX
  8
0
 10
-0.406956
 20
0.285127
 30
0.0
  0
VERTEX
  8
0
 10
-0.405588
 20
0.278548
 30
0.0
  0
VERTEX
  8
0
 10
-0.404073
 20
0.272088
 30
0.0
  0
VERTEX
  8
0
 10
-0.40234
 20
0.265807
 30
0.0
  0
VERTEX
  8
0
 10
-0.400314
 20
0.259763
 30
0.0
  0
VERTEX
  8
0
 10
-0.397924
 20
0.254016
 30
0.0
  0
VERTEX
  8
0
 10
-0.395095
 20
0.248626
 30
0.0
  0
VERTEX
  8
0
 10
-0.391756
 20
0.243652
 30
0.0
  0
VERTEX
  8
0
 10
-0.387437
 20
0.238714
 30
0.0
  0
VERTEX
  8
0
 10
-0.382488
 20
0.234304
 30
0.0
  0
VERTEX
  8
0
 10
-0.376982
 20
0.230378
 30
0.0
  0
VERTEX
  8
0
 10
-0.370996
 20
0.226889
 30
0.0
  0
VERTEX
  8
0
 10
-0.364603
 20
0.223791
 30
0.0
  0
VERTEX
  8
0
 10
-0.357878
 20
0.221039
 30
0.0
  0
VERTEX
  8
0
 10
-0.350897
 20
0.218587
 30
0.0
  0
VERTEX
  8
0
 10
-0.343733
 20
0.216389
 30
0.0
  0
VERTEX
  8
0
 10
-0.336462
 20
0.2144
 30
0.0
  0
VERTEX
  8
0
 10
-0.329159
 20
0.212574
 30
0.0
  0
VERTEX
  8
0
 10
-0.306264
 20
0.207538
 30
0.0
  0
VERTEX
  8
0
 10
-0.28376
 20
0.203379
 30
0.0
  0
VERTEX
  8
0
 10
-0.261613
 20
0.199802
 30
0.0
  0
VERTEX
  8
0
 10
-0.23979
 20
0.196511
 30
0.0
  0
VERTEX
  8
0
 10
-0.218257
 20
0.193208
 30
0.0
  0
VERTEX
  8
0
 10
-0.196982
 20
0.189598
 30
0.0
  0
VERTEX
  8
0
 10
-0.17593
 20
0.185384
 30
0.0
  0
VERTEX
  8
0
 10
-0.155067
 20
0.18027
 30
0.0
  0
VERTEX
  8
0
 10
-0.128216
 20
0.171936
 30
0.0
  0
VERTEX
  8
0
 10
-0.101673
 20
0.161773
 30
0.0
  0
VERTEX
  8
0
 10
-0.0754801
 20
0.149974
 30
0.0
  0
VERTEX
  8
0
 10
-0.0496814
 20
0.136729
 30
0.0
  0
VERTEX
  8
0
 10
-0.0243203
 20
0.122229
 30
0.0
  0
VERTEX
  8
0
 10
0.000559888
 20
0.106665
 30
0.0
  0
VERTEX
  8
0
 10
0.0249158
 20
0.090229
 30
0.0
  0
VERTEX
  8
0
 10
0.060088
 20
0.064466
 30
0.0
  0
VERTEX
  8
0
 10
0.0938516
 20
0.0371923
 30
0.0
  0
VERTEX
  8
0
 10
0.126055
 20
0.00840578
 30
0.0
  0
VERTEX
  8
0
 10
0.156545
 20
-0.0218958
 30
0.0
  0
VERTEX
  8
0
 10
0.185171
 20
-0.0537144
 30
0.0
  0
VERTEX
  8
0
 10
0.211781
 20
-0.0870524
 30
0.0
  0
VERTEX
  8
0
 10
0.236222
 20
-0.121912
 30
0.0
  0
VERTEX
  8
0
 10
0.251288
 20
-0.146055
 30
0.0
  0
VERTEX
  8
0
 10
0.265358
 20
-0.170849
 30
0.0
  0
VERTEX
  8
0
 10
0.278474
 20
-0.196262
 30
0.0
  0
VERTEX
  8
0
 10
0.290678
 20
-0.222263
 30
0.0
  0
VERTEX
  8
0
 10
0.302009
 20
-0.248823
 30
0.0
  0
VERTEX
  8
0
 10
0.304625
 20
-0.255291
 30
0.0
  0
VERTEX
  8
0
 10
0.307265
 20
-0.261743
 30
0.0
  0
VERTEX
  8
0
 10
0.310004
 20
-0.268134
 30
0.0
  0
VERTEX
  8
0
 10
0.312914
 20
-0.274415
 30
0.0
  0
VERTEX
  8
0
 10
0.316069
 20
-0.280541
 30
0.0
  0
VERTEX
  8
0
 10
0.319543
 20
-0.286466
 30
0.0
  0
VERTEX
  8
0
 10
0.323407
 20
-0.292143
 30
0.0
  0
VERTEX
  8
0
 10
0.327736
 20
-0.297525
 30
0.0
  0
VERTEX
  8
0
 10
0.331026
 20
-0.301044
 30
0.0
  0
VERTEX
  8
0
 10
0.33455
 20
-0.304378
 30
0.0
  0
VERTEX
  8
0
 10
0.338288
 20
-0.307507
 30
0.0
  0
VERTEX
  8
0
 10
0.342216
 20
-0.310408
 30
0.0
  0
VERTEX
  8
0
 10
0.346314
 20
-0.31306
 30
0.0
  0
VERTEX
  8
0
 10
0.350559
 20
-0.315442
 30
0.0
  0
VERTEX
  8
0
 10
0.35493
 20
-0.317531
 30
0.0
  0
VERTEX
  8
0
 10
0.359406
 20
-0.319306
 30
0.0
  0
VERTEX
  8
0
 10
0.363964
 20
-0.320746
 30
0.0
  0
VERTEX
  8
0
 10
0.368582
 20
-0.321828
 30
0.0
  0
VERTEX
  8
0
 10
0.374146
 20
-0.32264
 30
0.0
  0
VERTEX
  8
0
 10
0.379758
 20
-0.32299
 30
0.0
  0
VERTEX
  8
0
 10
0.385409
 20
-0.322955
 30
0.0
  0
VERTEX
  8
0
 10
0.391092
 20
-0.322611
 30
0.0
  0
VERTEX
  8
0
 10
0.396799
 20
-0.322036
 30
0.0
  0
VERTEX
  8
0
 10
0.402521
 20
-0.321308
 30
0.0
  0
VERTEX
  8
0
 10
0.408252
 20
-0.320502
 30
0.0
  0
SEQEND
  0
TEXT
  8
0
 62
3
 10
-0.00573822
 20
0.232869
 40
0.0416667
 50
-41.429
 1
STERN KNEE
  0
TEXT
  8
0
 62
3
 10
0.26707
 20
0.0845057
 40
0.025
 50
-81.429
 1
TRANSOM
  0
TEXT
  8
0
 62
3
 10
-0.146969
 20
0.271915
 40
0.025
 50
1.571
 1
KEEL
  0
ENDBLK
  8
0
  0
BLOCK
8
0
  2
penguin_plans5
70
0
  10
0.000000
  20
0.000000
  30
0.000000
  3
penguin_plans5
  1

  0
POLYLINE
  8
0
  66
 1
  62
3
  10
0.0
  20
0.0
  30
0.0
  0
VERTEX
  8
0
 62
  3
10
0.0419842
 20
-0.0916
 30
 0.0
  0
VERTEX
  8
0
 62
  3
10
0.0421482
 20
0.0916
 30
 0.0
  0
VERTEX
  8
0
 62
  3
10
-0.0421482
 20
0.0562019
 30
 0.0
  0
VERTEX
  8
0
 62
  3
10
-0.0421482
 20
-0.0568154
 30
 0.0
  0
VERTEX
  8
0
 62
  3
10
0.0418767
 20
-0.0915458
 30
 0.0
0
SEQEND
  8
0
62
   3
  0
POLYLINE
  8
0
  66
 1
  62
3
  10
0.0
  20
0.0
  30
0.0
  0
VERTEX
  8
0
 62
  3
10
0.0393007
 20
-0.00114138
 30
 0.0
  0
VERTEX
  8
0
 62
  3
10
-0.0390552
 20
-0.000945
 30
 0.0
0
SEQEND
  8
0
62
   3
  0
ENDBLK
  8
0
  0
BLOCK
8
0
  2
penguin_plans4
70
0
  10
0.000000
  20
0.000000
  30
0.000000
  3
penguin_plans4
  1

  0
POLYLINE
  8
0
  66
 1
  62
3
  10
0.0
  20
0.0
  30
0.0
  0
VERTEX
  8
0
 62
  3
10
-0.0402965
 20
-0.118762
 30
 0.0
  0
VERTEX
  8
0
 62
  3
10
0.0411463
 20
-0.0540616
 30
 0.0
0
SEQEND
  8
0
62
   3
  0
POLYLINE
  8
0
  66
 1
  62
3
  10
0.0
  20
0.0
  30
0.0
  0
VERTEX
  8
0
 62
  3
10
0.0411463
 20
-0.0540616
 30
 0.0
  0
VERTEX
  8
0
 62
  3
10
0.0418426
 20
0.056646
 30
 0.0
0
SEQEND
  8
0
62
   3
  0
POLYLINE
  8
0
  66
 1
  62
3
  10
0.0
  20
0.0
  30
0.0
  0
VERTEX
  8
0
 62
  3
10
0.0418426
 20
0.056646
 30
 0.0
  0
VERTEX
  8
0
 62
  3
10
-0.0407362
 20
0.119272
 30
 0.0
0
SEQEND
  8
0
62
   3
  0
POLYLINE
  8
0
  66
 1
  62
3
  10
0.0
  20
0.0
  30
0.0
  0
VERTEX
  8
0
 62
  3
10
-0.0407362
 20
0.119272
 30
 0.0
  0
VERTEX
  8
0
 62
  3
10
-0.0402965
 20
-0.118762
 30
 0.0
0
SEQEND
  8
0
62
   3
  0
POLYLINE
  8
0
  66
 1
  62
3
  10
0.0
  20
0.0
  30
0.0
  0
VERTEX
  8
0
 62
  3
10
-0.0392324
 20
-0.000728522
 30
 0.0
  0
VERTEX
  8
0
 62
  3
10
0.0388305
 20
-0.000728522
 30
 0.0
0
SEQEND
  8
0
62
   3
  0
ENDBLK
  8
0
  0
BLOCK
8
0
  2
penguin_plans3
70
0
  10
0.000000
  20
0.000000
  30
0.000000
  3
penguin_plans3
  1

  0
POLYLINE
  8
0
  66
 1
  62
3
  10
0.0
  20
0.0
  30
0.0
  0
VERTEX
  8
0
 62
  3
10
-0.84562
 20
-0.109018
 30
 0.0
  0
VERTEX
  8
0
 62
  3
10
-0.843112
 20
0.127509
 30
 0.0
  0
VERTEX
  8
0
 62
  3
10
-0.504017
 20
0.12033
 30
 0.0
  0
VERTEX
  8
0
 62
  3
10
-0.0167238
 20
0.110598
 30
 0.0
  0
VERTEX
  8
0
 62
  3
10
0.338019
 20
0.106838
 30
 0.0
  0
VERTEX
  8
0
 62
  3
10
0.701592
 20
0.102444
 30
 0.0
  0
VERTEX
  8
0
 62
  3
10
0.853718
 20
0.0994075
 30
 0.0
  0
VERTEX
  8
0
 62
  3
10
0.854738
 20
-0.0819226
 30
 0.0
  0
VERTEX
  8
0
 62
  3
10
0.558412
 20
-0.0884044
 30
 0.0
  0
VERTEX
  8
0
 62
  3
10
0.15386
 20
-0.0961447
 30
 0.0
  0
VERTEX
  8
0
 62
  3
10
-0.166808
 20
-0.101632
 30
 0.0
  0
VERTEX
  8
0
 62
  3
10
-0.476128
 20
-0.106454
 30
 0.0
  0
VERTEX
  8
0
 62
  3
10
-0.844643
 20
-0.109618
 30
 0.0
0
SEQEND
  8
0
62
   3
  0
POLYLINE
  8
0
  66
 1
  62
3
  10
0.0
  20
0.0
  30
0.0
  0
VERTEX
  8
0
 62
  3
10
-0.845651
 20
-0.047498
 30
 0.0
  0
VERTEX
  8
0
 62
  3
10
0.850253
 20
-0.0466717
 30
 0.0
0
SEQEND
  8
0
62
   3
  0
POLYLINE
  8
0
  66
 1
  62
3
  10
0.0
  20
0.0
  30
0.0
  0
VERTEX
  8
0
 62
  3
10
0.848641
 20
0.0653871
 30
 0.0
  0
VERTEX
  8
0
 62
  3
10
-0.841719
 20
0.0640111
 30
 0.0
0
SEQEND
  8
0
62
   3
  0
POLYLINE
  8
0
  66
 1
  62
3
  10
0.0
  20
0.0
  30
0.0
  0
VERTEX
  8
0
 62
  3
10
-0.988713
 20
0.00949939
 30
 0.0
  0
VERTEX
  8
0
 62
  3
10
0.988915
 20
0.00949939
 30
 0.0
0
SEQEND
  8
0
62
   3
  0
TEXT
  8
0
 62
3
 10
-0.0892437
 20
0.0171583
 40
0.03125
 50
0.96363
 1
STEM
  0
TEXT
  8
0
 62
3
 10
-0.851896
 20
-0.0348912
 40
0.0208333
 50
89.3926
 1
BASE LINE
  0
TEXT
  8
0
 62
3
 10
0.887199
 20
-0.0594786
 40
0.0208333
 50
89.3926
 1
TOP OF KEEL
  0
ENDBLK
  8
0
  0
BLOCK
8
0
  2
penguin_plans2
70
0
  10
0.000000
  20
0.000000
  30
0.000000
  3
penguin_plans2
  1

  0
POLYLINE
  8
0
  66
 1
  62
3
  10
0.0
  20
0.0
  30
0.0
  0
VERTEX
  8
0
 62
  3
10
2.07739
 20
-0.0818576
 30
 0.0
  0
VERTEX
  8
0
 62
  3
10
2.07841
 20
0.145666
 30
 0.0
0
SEQEND
  8
0
62
   3
  0
POLYLINE
  8
0
  66
 1
 62
3
  10
0.0
  20
0.0
  30
0.0
  0
VERTEX
  8
0
 10
2.07841
 20
0.145666
 30
0.0
  0
VERTEX
  8
0
 10
1.92801
 20
0.145713
 30
0.0
  0
VERTEX
  8
0
 10
1.77761
 20
0.145823
 30
0.0
  0
VERTEX
  8
0
 10
1.62721
 20
0.146062
 30
0.0
  0
VERTEX
  8
0
 10
1.47681
 20
0.146494
 30
0.0
  0
VERTEX
  8
0
 10
1.12346
 20
0.14848
 30
0.0
  0
VERTEX
  8
0
 10
0.770117
 20
0.151793
 30
0.0
  0
VERTEX
  8
0
 10
0.416785
 20
0.15634
 30
0.0
  0
VERTEX
  8
0
 10
0.0634702
 20
0.162031
 30
0.0
  0
VERTEX
  8
0
 10
-0.290593
 20
0.168744
 30
0.0
  0
VERTEX
  8
0
 10
-0.644643
 20
0.176153
 30
0.0
  0
VERTEX
  8
0
 10
-0.998686
 20
0.183896
 30
0.0
  0
VERTEX
  8
0
 10
-1.35273
 20
0.191613
 30
0.0
  0
VERTEX
  8
0
 10
-1.52644
 20
0.195291
 30
0.0
  0
VERTEX
  8
0
 10
-1.70015
 20
0.198899
 30
0.0
  0
VERTEX
  8
0
 10
-1.87386
 20
0.202461
 30
0.0
  0
VERTEX
  8
0
 10
-2.04757
 20
0.206
 30
0.0
  0
SEQEND
  0
POLYLINE
  8
0
  66
 1
  62
3
  10
0.0
  20
0.0
  30
0.0
  0
VERTEX
  8
0
 62
  3
10
-2.04757
 20
0.206
 30
 0.0
  0
VERTEX
  8
0
 62
  3
10
-2.07772
 20
-0.120253
 30
 0.0
0
SEQEND
  8
0
62
   3
  0
POLYLINE
  8
0
  66
 1
 62
3
  10
0.0
  20
0.0
  30
0.0
  0
VERTEX
  8
0
 10
-2.08094
 20
-0.12167
 30
0.0
  0
VERTEX
  8
0
 10
-1.90051
 20
-0.130764
 30
0.0
  0
VERTEX
  8
0
 10
-1.72006
 20
-0.139514
 30
0.0
  0
VERTEX
  8
0
 10
-1.53958
 20
-0.147573
 30
0.0
  0
VERTEX
  8
0
 10
-1.35906
 20
-0.154599
 30
0.0
  0
VERTEX
  8
0
 10
-1.07564
 20
-0.162966
 30
0.0
  0
VERTEX
  8
0
 10
-0.792115
 20
-0.168119
 30
0.0
  0
VERTEX
  8
0
 10
-0.508538
 20
-0.170242
 30
0.0
  0
VERTEX
  8
0
 10
-0.224945
 20
-0.16952
 30
0.0
  0
VERTEX
  8
0
 10
0.0586259
 20
-0.166136
 30
0.0
  0
VERTEX
  8
0
 10
0.412533
 20
-0.158454
 30
0.0
  0
VERTEX
  8
0
 10
0.766332
 20
-0.147262
 30
0.0
  0
VERTEX
  8
0
 10
1.12001
 20
-0.132912
 30
0.0
  0
VERTEX
  8
0
 10
1.47356
 20
-0.115756
 30
0.0
  0
VERTEX
  8
0
 10
1.62454
 20
-0.107673
 30
0.0
  0
VERTEX
  8
0
 10
1.7755
 20
-0.0992544
 30
0.0
  0
VERTEX
  8
0
 10
1.92645
 20
-0.090612
 30
0.0
  0
VERTEX
  8
0
 10
2.07739
 20
-0.0818576
 30
0.0
  0
SEQEND
  0
POLYLINE
  8
0
  66
 1
  62
3
  10
0.0
  20
0.0
  30
0.0
  0
VERTEX
  8
0
 62
  3
10
-1.3599
 20
-0.148839
 30
 0.0
  0
VERTEX
  8
0
 62
  3
10
-1.35413
 20
0.18162
 30
 0.0
0
SEQEND
  8
0
62
   3
  0
POLYLINE
  8
0
  66
 1
  62
3
  10
0.0
  20
0.0
  30
0.0
  0
VERTEX
  8
0
 62
  3
10
0.0606804
 20
0.156924
 30
 0.0
  0
VERTEX
  8
0
 62
  3
10
0.0552061
 20
-0.156698
 30
 0.0
0
SEQEND
  8
0
62
   3
  0
POLYLINE
  8
0
  66
 1
  62
3
  10
0.0
  20
0.0
  30
0.0
  0
VERTEX
  8
0
 62
  3
10
1.47438
 20
-0.105459
 30
 0.0
  0
VERTEX
  8
0
 62
  3
10
1.47479
 20
0.142798
 30
 0.0
0
SEQEND
  8
0
62
   3
  0
POLYLINE
  8
0
  66
 1
  62
3
  10
0.0
  20
0.0
  30
0.0
  0
VERTEX
  8
0
 62
  3
10
1.72472
 20
-0.0596453
 30
 0.0
  0
VERTEX
  8
0
 62
  3
10
1.72657
 20
0.0460899
 30
 0.0
0
SEQEND
  8
0
62
   3
  0
LINE
8
0
 62
3
 10
1.67332
 20
-0.0097578
 11
1.7709
 21
-0.0117652
  0
TEXT
  8
0
 62
3
 10
-0.722057
 20
-0.159877
 40
0.0208333
 50
0.571
 1
TOP OF KEEL
  0
TEXT
  8
0
 62
3
 10
-0.908712
 20
-0.0277149
 40
0.03125
 50
-1
 1
CENTERBOARD TRUNCK LOG
  0
TEXT
  8
0
 62
3
 10
1.76053
 20
0.00577467
 40
0.03125
 50
0.57105
 1
C'T'BOARD PIVOT
  0
TEXT
  8
0
 62
3
 10
0.0206715
 20
-0.064644
 40
0.03125
 50
89
 1
STA # 4
  0
TEXT
  8
0
 62
3
 10
1.45197
 20
-0.0312157
 40
0.03125
 50
89
 1
STA #3
  0
TEXT
  8
0
 62
3
 10
-1.38038
 20
-0.0252951
 40
0.03125
 50
89
 1
STA #5
  0
ENDBLK
  8
0
  0
BLOCK
8
0
  2
penguin_plans8
70
0
  10
0.000000
  20
0.000000
  30
0.000000
  3
penguin_plans8
  1

  0
POLYLINE
  8
0
  66
 1
 62
3
  10
0.0
  20
0.0
  30
0.0
  0
VERTEX
  8
0
 10
0.860617
 20
-1.02103
 30
0.0
  0
VERTEX
  8
0
 10
0.858013
 20
-0.958488
 30
0.0
  0
VERTEX
  8
0
 10
0.855031
 20
-0.895972
 30
0.0
  0
VERTEX
  8
0
 10
0.851294
 20
-0.833512
 30
0.0
  0
VERTEX
  8
0
 10
0.846425
 20
-0.771139
 30
0.0
  0
VERTEX
  8
0
 10
0.839195
 20
-0.700903
 30
0.0
  0
VERTEX
  8
0
 10
0.830067
 20
-0.630864
 30
0.0
  0
VERTEX
  8
0
 10
0.819066
 20
-0.561069
 30
0.0
  0
VERTEX
  8
0
 10
0.806215
 20
-0.49157
 30
0.0
  0
VERTEX
  8
0
 10
0.791538
 20
-0.422416
 30
0.0
  0
VERTEX
  8
0
 10
0.772245
 20
-0.34267
 30
0.0
  0
VERTEX
  8
0
 10
0.750523
 20
-0.263555
 30
0.0
  0
VERTEX
  8
0
 10
0.726371
 20
-0.185169
 30
0.0
  0
VERTEX
  8
0
 10
0.699786
 20
-0.10761
 30
0.0
  0
VERTEX
  8
0
 10
0.670764
 20
-0.0309791
 30
0.0
  0
VERTEX
  8
0
 10
0.63818
 20
0.047521
 30
0.0
  0
VERTEX
  8
0
 10
0.603626
 20
0.125193
 30
0.0
  0
VERTEX
  8
0
 10
0.567759
 20
0.202312
 30
0.0
  0
VERTEX
  8
0
 10
0.531235
 20
0.279156
 30
0.0
  0
SEQEND
  0
POLYLINE
  8
0
  66
 1
  62
3
  10
0.0
  20
0.0
  30
0.0
  0
VERTEX
  8
0
 62
  3
10
0.531235
 20
0.279156
 30
 0.0
  0
VERTEX
  8
0
 62
  3
10
-0.860617
 20
1.02403
 30
 0.0
0
SEQEND
  8
0
62
   3
  0
POLYLINE
  8
0
  66
 1
  62
2
  10
0.0
  20
0.0
  30
0.0
  0
VERTEX
  8
0
 62
  2
10
-0.860617
 20
1.02403
 30
 0.0
  0
VERTEX
  8
0
 62
  2
10
-0.860225
 20
-1.02403
 30
 0.0
0
SEQEND
  8
0
62
   2
  0
POLYLINE
  8
0
  66
 1
  62
2
  10
0.0
  20
0.0
  30
0.0
  0
VERTEX
  8
0
 62
  2
10
-0.860125
 20
-1.02266
 30
 0.0
  0
VERTEX
  8
0
 62
  2
10
0.860617
 20
-1.02103
 30
 0.0
0
SEQEND
  8
0
62
   2
  0
POLYLINE
  8
0
  66
 1
 62
3
  10
0.0
  20
0.0
  30
0.0
  0
VERTEX
  8
0
 10
-0.455285
 20
-1.02266
 30
0.0
  0
VERTEX
  8
0
 10
-0.453002
 20
-0.903612
 30
0.0
  0
VERTEX
  8
0
 10
-0.450488
 20
-0.784571
 30
0.0
  0
VERTEX
  8
0
 10
-0.447513
 20
-0.665541
 30
0.0
  0
VERTEX
  8
0
 10
-0.443846
 20
-0.546528
 30
0.0
  0
VERTEX
  8
0
 10
-0.439302
 20
-0.42821
 30
0.0
  0
VERTEX
  8
0
 10
-0.433721
 20
-0.309935
 30
0.0
  0
VERTEX
  8
0
 10
-0.42698
 20
-0.191722
 30
0.0
  0
VERTEX
  8
0
 10
-0.418954
 20
-0.0735938
 30
0.0
  0
VERTEX
  8
0
 10
-0.408025
 20
0.0623032
 30
0.0
  0
VERTEX
  8
0
 10
-0.395424
 20
0.198061
 30
0.0
  0
VERTEX
  8
0
 10
-0.381344
 20
0.333679
 30
0.0
  0
VERTEX
  8
0
 10
-0.365981
 20
0.469154
 30
0.0
  0
VERTEX
  8
0
 10
-0.35785
 20
0.537133
 30
0.0
  0
VERTEX
  8
0
 10
-0.349514
 20
0.605086
 30
0.0
  0
VERTEX
  8
0
 10
-0.34104
 20
0.67302
 30
0.0
  0
VERTEX
  8
0
 10
-0.332497
 20
0.740946
 30
0.0
  0
SEQEND
  0
TEXT
  8
0
 62
3
 10
-0.176303
 20
0.567344
 40
0.03125
 50
-28
 1
TRANSOM-3/4" FOR 'D' STA. #8
  0
ENDBLK
  8
0
  0
BLOCK
8
0
  2
penguin_plans7
70
0
  10
0.000000
  20
0.000000
  30
0.000000
  3
penguin_plans7
  1

  0
POLYLINE
  8
0
  66
 1
 62
3
  10
0.0
  20
0.0
  30
0.0
  0
VERTEX
  8
0
 10
0.971617
 20
-1.16338
 30
0.0
  0
VERTEX
  8
0
 10
0.967768
 20
-1.05006
 30
0.0
  0
VERTEX
  8
0
 10
0.963057
 20
-0.936805
 30
0.0
  0
VERTEX
  8
0
 10
0.956625
 20
-0.823688
 30
0.0
  0
VERTEX
  8
0
 10
0.947608
 20
-0.710777
 30
0.0
  0
VERTEX
  8
0
 10
0.937926
 20
-0.619616
 30
0.0
  0
VERTEX
  8
0
 10
0.92609
 20
-0.528676
 30
0.0
  0
VERTEX
  8
0
 10
0.912204
 20
-0.437996
 30
0.0
  0
VERTEX
  8
0
 10
0.896368
 20
-0.347617
 30
0.0
  0
VERTEX
  8
0
 10
0.878683
 20
-0.257578
 30
0.0
  0
VERTEX
  8
0
 10
0.858683
 20
-0.165519
 30
0.0
  0
VERTEX
  8
0
 10
0.836805
 20
-0.0739124
 30
0.0
  0
VERTEX
  8
0
 10
0.813012
 20
0.0171906
 30
0.0
  0
VERTEX
  8
0
 10
0.787267
 20
0.107739
 30
0.0
  0
VERTEX
  8
0
 10
0.761523
 20
0.191736
 30
0.0
  0
VERTEX
  8
0
 10
0.734479
 20
0.275338
 30
0.0
  0
VERTEX
  8
0
 10
0.706569
 20
0.358676
 30
0.0
  0
VERTEX
  8
0
 10
0.678227
 20
0.441882
 30
0.0
  0
SEQEND
  0
POLYLINE
  8
0
  66
 1
  62
3
  10
0.0
  20
0.0
  30
0.0
  0
VERTEX
  8
0
 62
  3
10
0.678227
 20
0.441882
 30
 0.0
  0
VERTEX
  8
0
 62
  3
10
-0.970642
 20
1.16776
 30
 0.0
0
SEQEND
  8
0
62
   3
  0
POLYLINE
  8
0
  66
 1
  62
2
  10
0.0
  20
0.0
  30
0.0
  0
VERTEX
  8
0
 62
  2
10
-0.970642
 20
1.16776
 30
 0.0
  0
VERTEX
  8
0
 62
  2
10
-0.971617
 20
-1.16776
 30
 0.0
0
SEQEND
  8
0
62
   2
  0
POLYLINE
  8
0
  66
 1
  62
2
  10
0.0
  20
0.0
  30
0.0
  0
VERTEX
  8
0
 62
  2
10
-0.970242
 20
-1.16687
 30
 0.0
  0
VERTEX
  8
0
 62
  2
10
0.971617
 20
-1.16338
 30
 0.0
0
SEQEND
  8
0
62
   2
  0
POLYLINE
  8
0
  66
 1
  62
3
  10
0.0
  20
0.0
  30
0.0
  0
VERTEX
  8
0
 62
  3
10
0.760216
 20
-1.16333
 30
 0.0
  0
VERTEX
  8
0
 62
  3
10
0.760216
 20
-1.13889
 30
 0.0
0
SEQEND
  8
0
62
   3
  0
TEXT
  8
0
 62
3
 10
0.768922
 20
-1.11832
 40
0.0208333
 50
90
 1
WATER LINE
  0
TEXT
  8
0
 62
3
 10
-0.0606977
 20
0.690122
 40
0.03125
 50
70
 1
#7
  0
ENDBLK
  8
0
  0
BLOCK
8
0
  2
penguin_plans4
70
0
  10
0.000000
  20
0.000000
  30
0.000000
  3
penguin_plans4
  1

  0
POLYLINE
  8
0
  66
 1
 62
3
  10
0.0
  20
0.0
  30
0.0
  0
VERTEX
  8
0
 10
1.03731
 20
-1.25647
 30
0.0
  0
VERTEX
  8
0
 10
1.03674
 20
-1.21913
 30
0.0
  0
VERTEX
  8
0
 10
1.03612
 20
-1.18179
 30
0.0
  0
VERTEX
  8
0
 10
1.03541
 20
-1.14446
 30
0.0
  0
VERTEX
  8
0
 10
1.03456
 20
-1.10712
 30
0.0
  0
VERTEX
  8
0
 10
1.03007
 20
-0.976804
 30
0.0
  0
VERTEX
  8
0
 10
1.02307
 20
-0.846579
 30
0.0
  0
VERTEX
  8
0
 10
1.01337
 20
-0.716525
 30
0.0
  0
VERTEX
  8
0
 10
1.00078
 20
-0.586713
 30
0.0
  0
VERTEX
  8
0
 10
0.986994
 20
-0.471103
 30
0.0
  0
VERTEX
  8
0
 10
0.97081
 20
-0.355796
 30
0.0
  0
VERTEX
  8
0
 10
0.95228
 20
-0.240842
 30
0.0
  0
VERTEX
  8
0
 10
0.931455
 20
-0.126293
 30
0.0
  0
VERTEX
  8
0
 10
0.908383
 20
-0.0122002
 30
0.0
  0
VERTEX
  8
0
 10
0.879143
 20
0.118861
 30
0.0
  0
VERTEX
  8
0
 10
0.847707
 20
0.249416
 30
0.0
  0
VERTEX
  8
0
 10
0.814809
 20
0.379634
 30
0.0
  0
VERTEX
  8
0
 10
0.781179
 20
0.509682
 30
0.0
  0
SEQEND
  0
POLYLINE
  8
0
  66
 1
  62
3
  10
0.0
  20
0.0
  30
0.0
  0
VERTEX
  8
0
 62
  3
10
0.781179
 20
0.509682
 30
 0.0
  0
VERTEX
  8
0
 62
  3
10
-1.03667
 20
1.26147
 30
 0.0
0
SEQEND
  8
0
62
   3
  0
POLYLINE
  8
0
  66
 1
  62
2
  10
0.0
  20
0.0
  30
0.0
  0
VERTEX
  8
0
 62
  2
10
-1.03667
 20
1.26147
 30
 0.0
  0
VERTEX
  8
0
 62
  2
10
-1.03731
 20
-1.26147
 30
 0.0
0
SEQEND
  8
0
62
   2
  0
POLYLINE
  8
0
  66
 1
  62
2
  10
0.0
  20
0.0
  30
0.0
  0
VERTEX
  8
0
 62
  2
10
-1.03534
 20
-1.26089
 30
 0.0
  0
VERTEX
  8
0
 62
  2
10
1.03731
 20
-1.25647
 30
 0.0
0
SEQEND
  8
0
62
   2
  0
TEXT
  8
0
 62
3
 10
-0.0768782
 20
0.783372
 40
0.03125
 50
70
 1
#6
  0
ENDBLK
  8
0
  0
BLOCK
8
0
  2
penguin_plans6
70
0
  10
0.000000
  20
0.000000
  30
0.000000
  3
penguin_plans6
  1

  0
POLYLINE
  8
0
  66
 1
 62
3
  10
0.0
  20
0.0
  30
0.0
  0
VERTEX
  8
0
 10
1.06576
 20
-1.28959
 30
0.0
  0
VERTEX
  8
0
 10
1.0625
 20
-1.15967
 30
0.0
  0
VERTEX
  8
0
 10
1.05851
 20
-1.02978
 30
0.0
  0
VERTEX
  8
0
 10
1.05308
 20
-0.899963
 30
0.0
  0
VERTEX
  8
0
 10
1.04549
 20
-0.770262
 30
0.0
  0
VERTEX
  8
0
 10
1.03644
 20
-0.655273
 30
0.0
  0
VERTEX
  8
0
 10
1.02517
 20
-0.540456
 30
0.0
  0
VERTEX
  8
0
 10
1.0117
 20
-0.425863
 30
0.0
  0
VERTEX
  8
0
 10
0.996092
 20
-0.311549
 30
0.0
  0
VERTEX
  8
0
 10
0.978379
 20
-0.197566
 30
0.0
  0
VERTEX
  8
0
 10
0.947278
 20
-0.0228119
 30
0.0
  0
VERTEX
  8
0
 10
0.912516
 20
0.151259
 30
0.0
  0
VERTEX
  8
0
 10
0.875312
 20
0.324874
 30
0.0
  0
VERTEX
  8
0
 10
0.836887
 20
0.498261
 30
0.0
  0
SEQEND
  0
POLYLINE
  8
0
  66
 1
  62
3
  10
0.0
  20
0.0
  30
0.0
  0
VERTEX
  8
0
 62
  3
10
0.836887
 20
0.498261
 30
 0.0
  0
VERTEX
  8
0
 62
  3
10
-1.0655
 20
1.29665
 30
 0.0
0
SEQEND
  8
0
62
   3
  0
POLYLINE
  8
0
  66
 1
  62
3
  10
0.0
  20
0.0
  30
0.0
  0
VERTEX
  8
0
 62
  3
10
-1.06576
 20
1.29695
 30
 0.0
  0
VERTEX
  8
0
 62
  3
10
-1.0616
 20
-1.29695
 30
 0.0
0
SEQEND
  8
0
62
   3
  0
POLYLINE
  8
0
  66
 1
  62
3
  10
0.0
  20
0.0
  30
0.0
  0
VERTEX
  8
0
 62
  3
10
-1.06061
 20
-1.29493
 30
 0.0
  0
VERTEX
  8
0
 62
  3
10
1.0655
 20
-1.28929
 30
 0.0
0
SEQEND
  8
0
62
   3
  0
TEXT
  8
0
 62
3
 10
-0.9687
 20
-0.218964
 40
0.03125
 50
90
 1
BASE LINE
  0
TEXT
  8
0
 62
3
 10
-0.0334497
 20
0.817362
 40
0.03125
 50
75
 1
#5
  0
TEXT
  8
0
 62
3
 10
-0.0661179
 20
-1.23226
 40
0.03125
 50
0
 1
CENTER LINE
  0
ENDBLK
  8
0
  0
BLOCK
8
0
  2
Untitled1
70
0
  10
0.000000
  20
0.000000
  30
0.000000
  3
Untitled1
  1

  0
POLYLINE
  8
0
  66
 1
  62
3
  10
0.0
  20
0.0
  30
0.0
  0
VERTEX
  8
0
 62
  3
10
-1.05462
 20
-1.25742
 30
 0.0
  0
VERTEX
  8
0
 62
  3
10
1.05462
 20
-1.26185
 30
 0.0
0
SEQEND
  8
0
62
   3
  0
POLYLINE
  8
0
  66
 1
 62
3
  10
0.0
  20
0.0
  30
0.0
  0
VERTEX
  8
0
 10
1.05462
 20
-1.26185
 30
0.0
  0
VERTEX
  8
0
 10
1.05206
 20
-1.16606
 30
0.0
  0
VERTEX
  8
0
 10
1.04921
 20
-1.07028
 30
0.0
  0
VERTEX
  8
0
 10
1.04576
 20
-0.974526
 30
0.0
  0
VERTEX
  8
0
 10
1.04141
 20
-0.878808
 30
0.0
  0
VERTEX
  8
0
 10
1.03417
 20
-0.756628
 30
0.0
  0
VERTEX
  8
0
 10
1.02494
 20
-0.63457
 30
0.0
  0
VERTEX
  8
0
 10
1.01369
 20
-0.512678
 30
0.0
  0
VERTEX
  8
0
 10
1.00037
 20
-0.390995
 30
0.0
  0
VERTEX
  8
0
 10
0.986596
 20
-0.281695
 30
0.0
  0
VERTEX
  8
0
 10
0.971167
 20
-0.17262
 30
0.0
  0
VERTEX
  8
0
 10
0.954123
 20
-0.0637894
 30
0.0
  0
VERTEX
  8
0
 10
0.935508
 20
0.0447749
 30
0.0
  0
VERTEX
  8
0
 10
0.919784
 20
0.13021
 30
0.0
  0
VERTEX
  8
0
 10
0.903347
 20
0.21551
 30
0.0
  0
VERTEX
  8
0
 10
0.886434
 20
0.300722
 30
0.0
  0
VERTEX
  8
0
 10
0.869283
 20
0.385889
 30
0.0
  0
SEQEND
  0
POLYLINE
  8
0
  66
 1
  62
3
  10
0.0
  20
0.0
  30
0.0
  0
VERTEX
  8
0
 62
  3
10
0.869283
 20
0.385889
 30
 0.0
  0
VERTEX
  8
0
 62
  3
10
-1.05147
 20
1.26185
 30
 0.0
  0
VERTEX
  8
0
 62
  3
10
-1.05422
 20
-1.25742
 30
 0.0
0
SEQEND
  8
0
62
   3
  0
TEXT
  8
0
 62
3
 10
-0.194616
 20
-1.23516
 40
0.03125
 50
1.57105
 1
CENTER LINE
  0
TEXT
  8
0
 62
3
 10
-0.995653
 20
-0.186106
 40
0.03125
 50
90
 1
BASE LINE
  0
TEXT
  8
0
 62
3
 10
0.030919
 20
0.685223
 40
0.03125
 50
75.5708
 1
#4
  0
ENDBLK
  8
0
  0
BLOCK
8
0
  2
Untitled
70
0
  10
0.000000
  20
0.000000
  30
0.000000
  3
Untitled
  1

  0
POLYLINE
  8
0
  66
 1
  62
2
  10
0.0
  20
0.0
  30
0.0
  0
VERTEX
  8
0
 62
  2
10
-0.98075
 20
-0.894467
 30
 0.0
  0
VERTEX
  8
0
 62
  2
10
0.98075
 20
-0.90355
 30
 0.0
0
SEQEND
  8
0
62
   2
  0
POLYLINE
  8
0
  66
 1
 62
3
  10
0.0
  20
0.0
  30
0.0
  0
VERTEX
  8
0
 10
0.98075
 20
-0.90355
 30
0.0
  0
VERTEX
  8
0
 10
0.979039
 20
-0.831235
 30
0.0
  0
VERTEX
  8
0
 10
0.977069
 20
-0.758925
 30
0.0
  0
VERTEX
  8
0
 10
0.974584
 20
-0.686621
 30
0.0
  0
VERTEX
  8
0
 10
0.971325
 20
-0.614329
 30
0.0
  0
VERTEX
  8
0
 10
0.965396
 20
-0.518316
 30
0.0
  0
VERTEX
  8
0
 10
0.957292
 20
-0.422459
 30
0.0
  0
VERTEX
  8
0
 10
0.946656
 20
-0.326887
 30
0.0
  0
VERTEX
  8
0
 10
0.933133
 20
-0.231729
 30
0.0
  0
VERTEX
  8
0
 10
0.921149
 20
-0.161593
 30
0.0
  0
VERTEX
  8
0
 10
0.907831
 20
-0.0916815
 30
0.0
  0
VERTEX
  8
0
 10
0.893624
 20
-0.0219186
 30
0.0
  0
VERTEX
  8
0
 10
0.878975
 20
0.0477699
 30
0.0
  0
SEQEND
  0
POLYLINE
  8
0
  66
 1
  62
3
  10
0.0
  20
0.0
  30
0.0
  0
VERTEX
  8
0
 62
  3
10
0.878975
 20
0.0477699
 30
 0.0
  0
VERTEX
  8
0
 62
  3
10
-0.965083
 20
0.90355
 30
 0.0
0
SEQEND
  8
0
62
   3
  0
LINE
8
0
 62
2
 10
-0.965083
 20
0.90355
 11
-0.979875
 21
-0.894467
  0
TEXT
  8
0
 62
3
 10
0.000778168
 20
0.358405
 40
0.03125
 50
71.571
 1
#2
  0
ENDBLK
  8
0
  0
BLOCK
8
0
  2
penguin_plans1
70
0
  10
0.000000
  20
0.000000
  30
0.000000
  3
penguin_plans1
  1

  0
POLYLINE
  8
0
  66
 1
  62
2
  10
0.0
  20
0.0
  30
0.0
  0
VERTEX
  8
0
 62
  2
10
-0.921325
 20
-0.513242
 30
 0.0
  0
VERTEX
  8
0
 62
  2
10
0.921325
 20
-0.522521
 30
 0.0
0
SEQEND
  8
0
62
   2
  0
POLYLINE
  8
0
  66
 1
 62
3
  10
0.0
  20
0.0
  30
0.0
  0
VERTEX
  8
0
 10
0.921325
 20
-0.522521
 30
0.0
  0
VERTEX
  8
0
 10
0.919919
 20
-0.48908
 30
0.0
  0
VERTEX
  8
0
 10
0.918417
 20
-0.455643
 30
0.0
  0
VERTEX
  8
0
 10
0.916723
 20
-0.42221
 30
0.0
  0
VERTEX
  8
0
 10
0.914742
 20
-0.388786
 30
0.0
  0
VERTEX
  8
0
 10
0.911866
 20
-0.348855
 30
0.0
  0
VERTEX
  8
0
 10
0.908297
 20
-0.30898
 30
0.0
  0
VERTEX
  8
0
 10
0.903887
 20
-0.269205
 30
0.0
  0
VERTEX
  8
0
 10
0.898492
 20
-0.229569
 30
0.0
  0
VERTEX
  8
0
 10
0.89154
 20
-0.187312
 30
0.0
  0
VERTEX
  8
0
 10
0.883615
 20
-0.145211
 30
0.0
  0
VERTEX
  8
0
 10
0.875041
 20
-0.103215
 30
0.0
  0
VERTEX
  8
0
 10
0.866142
 20
-0.0612709
 30
0.0
  0
SEQEND
  0
POLYLINE
  8
0
  66
 1
  62
3
  10
0.0
  20
0.0
  30
0.0
  0
VERTEX
  8
0
 62
  3
10
0.866142
 20
-0.0612709
 30
 0.0
  0
VERTEX
  8
0
 62
  3
10
-0.916508
 20
0.522521
 30
 0.0
0
SEQEND
  8
0
62
   3
  0
LINE
8
0
 62
2
 10
-0.91575
 20
0.521448
 11
-0.918975
 21
-0.511792
  0
POLYLINE
  8
0
  66
 1
  62
3
  10
0.0
  20
0.0
  30
0.0
  0
VERTEX
  8
0
 62
  3
10
0.810661
 20
-0.512898
 30
 0.0
  0
VERTEX
  8
0
 62
  3
10
0.810661
 20
-0.470677
 30
 0.0
0
SEQEND
  8
0
62
   3
  0
TEXT
  8
0
 62
3
 10
0.04149
 20
0.122883
 40
0.03125
 50
-277.429
 1
#1
  0
TEXT
  8
0
 62
3
 10
0.840111
 20
-0.510971
 40
0.0208333
 50
-270
 1
WATER LINE
  0
ENDBLK
  8
0
  0
BLOCK
8
0
  2
penguin_plans
70
0
  10
0.000000
  20
0.000000
  30
0.000000
  3
penguin_plans
  1

  0
LINE
8
0
 62
2
 10
-1.01648
 20
1.13643
 11
-1.01924
 21
-1.13198
  0
POLYLINE
  8
0
  66
 1
  62
2
  10
0.0
  20
0.0
  30
0.0
  0
VERTEX
  8
0
 62
  2
10
-1.01924
 20
-1.13198
 30
 0.0
  0
VERTEX
  8
0
 62
  2
10
1.01924
 20
-1.13682
 30
 0.0
0
SEQEND
  8
0
62
   2
  0
POLYLINE
  8
0
  66
 1
 62
3
  10
0.0
  20
0.0
  30
0.0
  0
VERTEX
  8
0
 10
1.01924
 20
-1.13682
 30
0.0
  0
VERTEX
  8
0
 10
1.01654
 20
-1.04298
 30
0.0
  0
VERTEX
  8
0
 10
1.01354
 20
-0.949144
 30
0.0
  0
VERTEX
  8
0
 10
1.00997
 20
-0.855327
 30
0.0
  0
VERTEX
  8
0
 10
1.00554
 20
-0.761535
 30
0.0
  0
VERTEX
  8
0
 10
0.997577
 20
-0.632455
 30
0.0
  0
VERTEX
  8
0
 10
0.987174
 20
-0.50354
 30
0.0
  0
VERTEX
  8
0
 10
0.974076
 20
-0.374895
 30
0.0
  0
VERTEX
  8
0
 10
0.958025
 20
-0.246624
 30
0.0
  0
VERTEX
  8
0
 10
0.940333
 20
-0.127463
 30
0.0
  0
VERTEX
  8
0
 10
0.920552
 20
-0.00861321
 30
0.0
  0
VERTEX
  8
0
 10
0.899378
 20
0.110029
 30
0.0
  0
VERTEX
  8
0
 10
0.877508
 20
0.228569
 30
0.0
  0
SEQEND
  0
POLYLINE
  8
0
  66
 1
  62
3
  10
0.0
  20
0.0
  30
0.0
  0
VERTEX
  8
0
 62
  3
10
0.877508
 20
0.228569
 30
 0.0
  0
VERTEX
  8
0
 62
  3
10
-1.01589
 20
1.13682
 30
 0.0
0
SEQEND
  8
0
62
   3
  0
TEXT
  8
0
 62
3
 10
0.0529387
 20
0.46693
 40
0.03125
 50
75.5708
 1
#3
  0
ENDBLK
  8
0
  0
ENDSEC
  0
SECTION
2
ENTITIES
  0
INSERT
  8
0
  2
ppplans
  10
2.495106
  20
-0.456304
  50
0.0
  0
INSERT
  8
0
  2
stem
  10
2.517364
  20
0.366125
  50
0.0
  0
INSERT
  8
0
  2
stern
  10
1.752232
  20
0.384505
  50
0.0
  0
INSERT
  8
0
  2
penguin_plans5
  10
-0.957214
  20
1.848880
  50
0.0
  0
INSERT
  8
0
  2
penguin_plans4
  10
-2.820503
  20
1.849380
  50
0.0
  0
INSERT
  8
0
  2
penguin_plans3
  10
-1.892889
  20
1.838401
  50
0.0
  0
INSERT
  8
0
  2
penguin_plans2
  10
-0.813893
  20
1.038131
  50
0.0
  0
INSERT
  8
0
  2
penguin_plans8
  10
0.767584
  20
-0.901795
  50
0.0
  0
INSERT
  8
0
  2
penguin_plans7
  10
0.874018
  20
-0.760892
  50
0.0
  0
INSERT
  8
0
  2
penguin_plans4
  10
0.934041
  20
-0.671858
  50
0.0
  0
INSERT
  8
0
  2
penguin_plans6
  10
0.961835
  20
-0.642756
  50
0.0
  0
INSERT
  8
0
  2
Untitled1
  10
-1.729365
  20
-0.706802
  50
0.0
  0
INSERT
  8
0
  2
Untitled
  10
-1.803557
  20
-1.046435
  50
0.0
  0
INSERT
  8
0
  2
penguin_plans1
  10
-1.855529
  20
-1.427871
  50
0.0
  0
INSERT
  8
0
  2
penguin_plans
  10
-1.771708
  20
-0.821842
  50
0.0
  0
ENDSEC
  0
EOF
